
      <svg data-logo="logo" xmlns="http://www.w3.org/2000/svg" viewBox="0 0 171 42">
        <g id="logogram" transform="translate(0, 1) rotate(0) "><path d="M28.7089 33.1053L1.9434 14.6424C-0.768963 12.7715 0.15306 8.87601 3.53531 7.95996L31.9823 0.239132C32.5849 0.0216955 33.2306 -0.0488885 33.866 0.0332432C34.5013 0.115375 35.1079 0.34785 35.6355 0.711378C36.1629 1.07491 36.5961 1.559 36.899 2.12348C37.2018 2.68795 37.3658 3.31654 37.3771 3.95706L35.6912 30.1393C35.4913 33.247 31.4213 34.9762 28.7089 33.1053Z" fill="#B2AEB0"/><path d="M20.2197 37.6632L4.45132 6.82618C4.09087 6.12072 3.93226 5.32941 3.99297 4.53953C4.05367 3.74965 4.33135 2.99187 4.79536 2.34978C5.25939 1.70769 5.89172 1.20622 6.62264 0.900668C7.35356 0.595117 8.15466 0.497365 8.93761 0.618198L38.1604 5.12834C38.8331 5.23219 39.4717 5.49425 40.0236 5.89298C40.5753 6.29172 41.0245 6.81572 41.3344 7.42191C41.6441 8.0281 41.8057 8.69917 41.8055 9.37994C41.8054 10.0607 41.6437 10.7317 41.3338 11.3378L27.8719 37.6647C27.5104 38.3681 26.962 38.9583 26.2869 39.3703C25.6118 39.7823 24.8363 40.0002 24.0454 40C23.2545 39.9999 22.479 39.7817 21.804 39.3695C21.1291 38.9571 20.5809 38.3668 20.2197 37.6632Z" fill="#1DACE3"/><path d="M37.3055 4.9955L22.7382 2.74713L4.85269 7.60342L11.9917 21.5695L28.7089 33.1053C29.0777 33.357 29.4834 33.5497 29.9114 33.6767L36.2612 21.2592L37.3055 4.9955Z" fill="#001A49"/></g>
        <g id="logotype" transform="translate(48, 7)"><path fill="#4f4f4f" d="M21.31 13.84L21.31 13.84Q21.31 15.02 20.00 17.28Q18.68 19.55 16.62 21.87Q14.56 24.20 12.25 25.90Q9.95 27.60 8.65 27.60L8.65 27.60Q7.95 27.60 7.37 27.09Q6.79 26.57 6.79 25.45Q6.79 24.33 7.85 21.92Q8.91 19.51 9.93 17.86L9.93 17.86Q9.02 18.52 8.83 18.52Q8.63 18.52 8.33 18.08Q8.03 17.63 8.03 17.39Q8.03 17.14 8.12 17.02L8.12 17.02Q11.49 13.28 12.87 13.28L12.87 13.28Q13.45 13.28 13.84 13.62Q14.24 13.96 14.24 14.44Q14.24 14.92 13.08 17.19Q11.91 19.46 10.75 21.78Q9.59 24.09 9.59 24.69L9.59 24.69Q9.59 24.80 9.69 24.80L9.69 24.80Q10.14 24.80 12.09 23.03Q14.05 21.26 15.26 19.74Q16.48 18.22 17.39 16.68Q18.30 15.14 18.30 14.66Q18.30 14.18 18.11 13.87Q17.91 13.55 17.91 13.18Q17.91 12.82 18.42 12.36Q18.92 11.91 19.71 11.91L19.71 11.91Q21.31 11.91 21.31 13.84ZM32.83 14.01L32.83 14.01Q34.13 14.01 34.13 14.90L34.13 14.90Q34.13 15.38 33.91 15.60Q33.69 15.82 32.96 17.08Q32.23 18.34 31.35 20.29Q30.47 22.25 30.22 23.63L30.22 23.63Q30.17 23.80 30.17 24.11L30.17 24.11Q30.17 25.05 30.68 25.05Q31.19 25.05 31.89 24.56Q32.59 24.08 33.14 23.52Q33.69 22.97 34.21 22.39Q34.73 21.80 34.83 21.72Q34.93 21.63 35.14 21.63L35.14 21.63Q35.46 21.63 35.53 22.13Q35.60 22.63 35.60 23.15Q35.60 23.68 35.50 23.89L35.50 23.89Q35.00 24.86 33.32 26.23Q31.63 27.60 30.26 27.60Q28.88 27.60 28.23 26.76Q27.58 25.92 27.58 24.91Q27.58 23.89 27.93 23.12L27.93 23.12Q26.51 24.97 24.67 26.25Q22.83 27.53 21.67 27.53Q20.51 27.53 19.77 26.83L19.77 26.83Q18.83 25.96 18.83 24.41Q18.83 22.86 19.53 21.30Q20.22 19.74 21.35 18.45Q22.47 17.16 23.82 16.10L23.82 16.10Q26.66 13.88 29.05 13.88L29.05 13.88Q29.98 13.88 30.56 14.18Q31.14 14.49 31.29 14.95L31.29 14.95Q31.70 14.34 31.99 14.17Q32.27 14.01 32.83 14.01ZM30.56 15.91L30.56 15.91Q27.64 15.91 24.51 19.16L24.51 19.16Q23.40 20.32 22.47 21.94Q21.53 23.56 21.53 24.16Q21.53 24.76 21.88 24.76L21.88 24.76Q22.35 24.76 24.54 22.87Q26.73 20.98 27.45 20.10L27.45 20.10Q28.23 19.10 30.56 15.91ZM48.21 1.35Q49.03 1.35 49.66 1.84Q50.28 2.32 50.28 3.28Q50.28 4.24 49.22 6.28Q48.16 8.32 46.67 10.45Q45.19 12.58 43.31 14.97L43.31 14.97Q40.33 18.76 37.60 21.79L37.60 21.79Q37.58 21.99 37.45 22.55Q37.33 23.10 37.33 23.67Q37.33 24.23 37.85 24.68Q38.37 25.14 39.14 25.14Q39.91 25.14 40.79 24.59Q41.67 24.04 42.32 23.38L42.32 23.38Q44.02 21.62 44.44 21.62Q44.85 21.62 44.85 22.86L44.85 22.86L44.85 23.21Q44.85 23.87 44.61 24.18L44.61 24.18Q43.17 25.94 41.38 26.80Q39.58 27.67 37.98 27.67Q36.37 27.67 35.53 26.68Q34.69 25.70 34.69 23.99L34.69 23.99Q34.69 20.66 36.48 16.16Q38.27 11.65 40.50 8.49L40.50 8.49Q45.55 1.35 48.21 1.35L48.21 1.35ZM47.44 4.19L47.44 4.19Q47.44 3.93 47.27 3.93L47.27 3.93Q46.67 3.93 44.13 7.35Q41.58 10.76 40.44 12.80Q39.31 14.83 38.30 17.91L38.30 17.91Q40.32 15.52 43.88 10.45Q47.44 5.38 47.44 4.19ZM52.96 9.45L52.96 9.45Q53.22 9.45 53.22 9.74L53.22 9.74Q53.22 9.84 53.13 9.93L53.13 9.93Q51.70 11.36 49.82 11.36L49.82 11.36Q49.37 11.36 48.83 10.86Q48.28 10.35 48.28 9.40Q48.28 8.44 49.44 7.27Q50.60 6.10 52.68 5.05Q54.76 4.00 57.87 3.18Q60.98 2.36 63.46 2.36Q65.93 2.36 67.52 2.76Q69.11 3.16 70.01 3.75Q70.91 4.34 71.49 5.07L71.49 5.07Q72.46 6.30 72.46 7.58Q72.46 8.85 71.64 10.20Q70.82 11.55 69.51 12.60Q68.21 13.65 66.52 14.56L66.52 14.56Q63.35 16.23 59.75 17.02L59.75 17.02Q60.36 17.65 62.35 20.19Q64.34 22.73 65.99 24.44Q67.64 26.15 68.55 26.15L68.55 26.15L69.11 25.94Q69.30 25.94 69.30 26.09Q69.30 26.23 68.68 26.92Q68.05 27.62 67.59 27.97Q67.13 28.33 66.34 28.33Q65.54 28.33 64.53 27.56Q63.52 26.79 62.33 25.39Q61.13 23.99 60.17 22.75Q59.22 21.51 57.99 19.83Q56.76 18.15 56.30 17.55L56.30 17.55Q56.12 17.82 55.42 18.91Q54.72 19.99 54.40 20.51Q54.07 21.02 53.46 22.00Q52.84 22.98 52.50 23.58L52.50 23.58Q51.56 25.17 51.19 25.96Q50.83 26.74 49.99 26.74L49.99 26.74L49.39 26.73L48.88 26.74Q47.82 26.74 47.82 25.85L47.82 25.85Q47.82 25.19 48.39 23.95Q48.96 22.71 54.47 14.70Q59.97 6.70 60.53 6.16Q61.10 5.62 61.37 5.55L61.37 5.55Q61.58 5.40 61.64 5.40L61.64 5.40L61.95 5.45L62.24 5.40Q62.40 5.40 62.52 5.53Q62.64 5.65 62.69 5.69L62.69 5.69Q63.40 6.22 63.40 6.58Q63.40 6.94 63.23 7.27Q63.05 7.60 62.24 8.77Q61.44 9.93 60.13 11.78Q58.82 13.64 58.24 14.47L58.24 14.47Q59.65 14.40 61.61 13.62Q63.58 12.83 65.29 11.73Q67.01 10.63 68.23 9.34Q69.45 8.05 69.45 7.09L69.45 7.09Q69.45 6.58 68.92 6.16Q68.40 5.74 67.59 5.50L67.59 5.50Q65.99 5.02 63.97 5.02Q61.95 5.02 58.86 5.89Q55.77 6.77 54.35 7.56Q52.93 8.35 52.30 8.91Q51.66 9.47 51.66 9.69L51.66 9.69Q51.66 9.81 52.01 9.81Q52.36 9.81 52.64 9.63Q52.91 9.45 52.96 9.45ZM80.49 14.22L80.49 14.22Q80.49 15.34 79.58 16.20Q78.67 17.05 77.50 17.05L77.50 17.05Q77.13 17.05 77.01 16.87Q76.89 16.69 76.89 16.40Q76.89 16.11 76.96 15.84L76.96 15.84Q76.34 16.05 75.59 16.47Q74.84 16.90 73.74 17.74Q72.65 18.57 72.65 18.98L72.65 18.98Q72.65 19.12 73.05 19.12Q73.45 19.12 74.29 18.84Q75.13 18.56 75.46 18.56Q75.79 18.56 75.90 18.59L75.90 18.59Q76.12 18.71 76.38 19.11Q76.63 19.51 76.63 19.75Q76.63 19.98 76.19 20.35Q75.74 20.73 75.18 20.92Q74.62 21.12 74.43 21.22L74.43 21.22Q70.82 23.24 70.82 23.99L70.82 23.99Q70.82 25.33 73.09 25.33L73.09 25.33Q74.55 25.33 76.02 24.40L76.02 24.40Q77.26 23.62 78.26 22.80Q79.26 21.99 79.53 21.80Q79.79 21.62 79.93 21.62L79.93 21.62Q80.38 21.62 80.38 22.61Q80.38 23.60 80.26 23.92Q80.14 24.23 79.57 24.69L79.57 24.69Q75.91 27.67 72.65 27.67L72.65 27.67Q70.91 27.67 69.86 27.19L69.86 27.19Q67.95 26.32 67.95 24.52L67.95 24.52Q67.95 22.16 71.21 20.95L71.21 20.95Q70.57 20.66 70.38 20.21Q70.19 19.75 70.19 18.75Q70.19 17.75 71.12 16.64Q72.05 15.52 73.40 14.80L73.40 14.80Q76.41 13.17 78.77 13.17L78.77 13.17Q79.33 13.17 79.91 13.45Q80.49 13.72 80.49 14.22ZM88.77 24.37L88.77 24.37Q88.77 25.12 89.79 25.12L89.79 25.12Q90.34 25.12 91.17 24.57Q92.00 24.03 92.66 23.38L92.66 23.38Q94.44 21.62 94.68 21.62L94.68 21.62Q95.12 21.62 95.12 22.90Q95.12 24.18 94.32 24.66L94.32 24.66Q91.88 26.86 90.54 27.34L90.54 27.34Q89.79 27.60 88.89 27.58Q87.98 27.56 87.09 26.79Q86.20 26.03 86.20 24.92Q86.20 23.82 86.78 22.42Q87.36 21.02 87.97 20.02Q88.58 19.02 89.47 17.69Q90.36 16.37 90.41 16.05L90.41 16.05L90.37 16.01Q89.81 16.06 87.58 18.23Q85.35 20.40 83.90 22.01Q82.44 23.62 80.43 26.30L80.43 26.30Q79.86 27.03 79.50 27.03Q79.14 27.03 78.54 26.80Q77.93 26.57 77.79 26.47Q77.66 26.37 77.66 26.16Q77.66 25.96 77.78 25.66Q77.90 25.36 78.01 25.16Q78.12 24.97 78.38 24.56Q78.63 24.15 79.39 22.82Q80.15 21.50 81.73 18.87Q83.30 16.23 83.60 15.69L83.60 15.69Q84.25 14.56 84.66 14.05L84.66 14.05Q85.43 13.07 87.26 13.07L87.26 13.07Q87.67 13.07 87.67 13.58L87.67 13.58Q87.67 14.39 86.19 16.61L86.19 16.61L85.47 17.69Q88.42 14.40 90.46 13.53L90.46 13.53Q91.45 13.11 92.24 13.11Q93.04 13.11 93.51 13.53Q93.98 13.96 93.98 14.48Q93.98 15.00 93.62 15.73Q93.26 16.46 92.89 17.03Q92.53 17.60 91.93 18.47Q91.33 19.34 91.28 19.42Q91.23 19.50 91.01 19.83Q90.80 20.16 90.70 20.32Q90.59 20.47 90.36 20.86Q90.12 21.24 89.97 21.50Q89.83 21.75 89.61 22.13Q89.40 22.51 89.27 22.78Q89.14 23.05 89.01 23.38L89.01 23.38Q88.77 23.98 88.77 24.37ZM101.40 16.08L101.40 16.08Q95.84 16.42 94.92 16.61L94.92 16.61L94.87 16.61Q94.53 16.61 94.53 16.17Q94.53 15.72 95.06 14.95Q95.58 14.18 96.37 13.94Q97.16 13.70 98.11 13.69L98.11 13.69Q102.01 13.62 104.75 13.21L104.75 13.21Q104.78 13.21 105.23 13.04Q105.69 12.87 106.03 12.87Q106.37 12.87 106.67 13.24Q106.97 13.62 106.97 14.20Q106.97 14.78 106.66 15.09Q106.35 15.40 105.55 15.62L105.55 15.62Q98.06 21.46 96.25 24.59L96.25 24.59Q96.82 24.42 99.12 23.99L99.12 23.99Q105.14 22.88 105.70 22.28L105.70 22.28Q105.87 22.11 106.09 22.11Q106.30 22.11 106.56 22.27Q106.81 22.44 106.81 23.75L106.81 23.75Q106.81 24.13 106.46 24.68Q106.11 25.24 105.66 25.44Q105.21 25.65 100.71 26.42L100.71 26.42Q94.73 27.46 94.23 27.46Q93.72 27.46 93.59 27.44Q93.45 27.43 93.35 27.41Q93.24 27.39 93.15 27.36Q93.06 27.32 93.00 27.31Q92.95 27.29 92.88 27.24Q92.82 27.19 92.79 27.17Q92.77 27.15 92.58 26.97Q92.39 26.79 92.39 26.08Q92.39 25.36 92.46 25.22L92.46 25.22Q93.28 23.65 94.57 22.16Q95.86 20.66 96.87 19.79Q97.88 18.92 99.38 17.72Q100.88 16.52 101.40 16.08ZM119.12 14.01L119.12 14.01Q120.42 14.01 120.42 14.90L120.42 14.90Q120.42 15.38 120.19 15.60Q119.97 15.82 119.25 17.08Q118.52 18.34 117.64 20.29Q116.76 22.25 116.50 23.63L116.50 23.63Q116.45 23.80 116.45 24.11L116.45 24.11Q116.45 25.05 116.96 25.05Q117.48 25.05 118.18 24.56Q118.88 24.08 119.43 23.52Q119.97 22.97 120.49 22.39Q121.01 21.80 121.12 21.72Q121.22 21.63 121.42 21.63L121.42 21.63Q121.75 21.63 121.82 22.13Q121.89 22.63 121.89 23.15Q121.89 23.68 121.78 23.89L121.78 23.89Q121.29 24.86 119.60 26.23Q117.92 27.60 116.55 27.60Q115.17 27.60 114.52 26.76Q113.87 25.92 113.87 24.91Q113.87 23.89 114.21 23.12L114.21 23.12Q112.79 24.97 110.96 26.25Q109.12 27.53 107.96 27.53Q106.80 27.53 106.06 26.83L106.06 26.83Q105.12 25.96 105.12 24.41Q105.12 22.86 105.81 21.30Q106.51 19.74 107.63 18.45Q108.76 17.16 110.11 16.10L110.11 16.10Q112.95 13.88 115.34 13.88L115.34 13.88Q116.26 13.88 116.84 14.18Q117.43 14.49 117.58 14.95L117.58 14.95Q117.99 14.34 118.27 14.17Q118.55 14.01 119.12 14.01ZM116.84 15.91L116.84 15.91Q113.92 15.91 110.79 19.16L110.79 19.16Q109.68 20.32 108.75 21.94Q107.82 23.56 107.82 24.16Q107.82 24.76 108.16 24.76L108.16 24.76Q108.64 24.76 110.83 22.87Q113.02 20.98 113.73 20.10L113.73 20.10Q114.52 19.10 116.84 15.91Z"/></g>
        
      </svg>
    