<svg viewBox="0 0 320 45" xmlns="http://www.w3.org/2000/svg" data-logo="logo">
        <g transform="translate(0, 2) rotate(0)" id="logogram" style="opacity: 1;"><path fill="#050815" d="M0.301758 30.08L0.301761 10.08L10.3018 15.6355V24.5799L18.3018 29.08L26.3018 24.5799V15.6355L36.3019 10.08V30.08L18.3018 40.08L0.301758 30.08Z"></path><path fill="url(#paint0_linear_5558_2243)" d="M5.30177 12.8578L0.301758 10.08L18.3018 0.0799561L36.3019 10.08L31.3018 12.8578V27.58L18.3018 35.08L5.30176 27.58L5.30177 12.8578ZM30.7602 13.1587L26.3018 15.6355V15.58L18.3018 11.0799L10.3018 15.58V15.6355L5.84343 13.1587V27.2723L18.3018 34.4598L30.7602 27.2723V13.1587Z" clip-rule="evenodd" fill-rule="evenodd"></path></g>
        <g transform="translate(43, 1)" id="logotype" style="opacity: 1;"><path d="M6.74 11.27L6.74 10.50L24.94 10.50L25.29 17.43L24.66 17.43Q23.19 13.89 21.58 12.58Q19.97 11.27 16.85 11.27L16.85 11.27L15.63 11.27L15.63 22.09L16.82 22.09Q18.46 22.09 19.58 20.84Q20.70 19.60 21.16 17.50L21.16 17.50L21.68 17.50L21.68 27.86L21.09 27.86Q20.46 25.23 19.39 24.11Q18.32 22.99 16.47 22.99L16.47 22.99L15.63 22.99L15.63 34.23L16.96 34.23Q20.18 34.23 22.43 32.30Q24.69 30.38 25.53 27.37L25.53 27.37L26.23 27.37L25.95 35L6.74 35L6.74 34.23L8.80 34.23L8.80 11.27L6.74 11.27ZM36.70 18.97L40.16 24.67L44.29 18.97L41.77 18.97L41.77 18.34L46.99 18.34L46.99 18.97L45.17 18.97L40.62 25.41L46.32 34.37L48.14 34.37L48.14 35L36.45 35L36.45 34.37L38.94 34.37L35.09 28.07L31.10 34.37L33.41 34.37L33.41 35L27.91 35L27.91 34.37L30.22 34.37L34.67 27.37L29.35 18.97L27.32 18.97L27.32 18.34L39.15 18.34L39.15 18.97L36.70 18.97ZM61.27 25.59Q61.27 21.98 60.92 20.74Q60.57 19.49 59.55 19.49Q58.54 19.49 57.73 20.81Q56.93 22.12 56.93 24.32L56.93 24.32L56.93 30.73Q56.93 32.23 57.52 33.28Q58.12 34.34 59.27 34.34Q60.43 34.34 60.85 32.80Q61.27 31.25 61.27 27.41L61.27 27.41L61.27 25.59ZM48.56 18.34L56.86 18.34L56.86 21.10Q58.22 17.99 61.69 17.99L61.69 17.99Q64.70 17.99 66.36 20.16Q68.02 22.33 68.02 26.74Q68.02 31.15 66.22 33.25Q64.42 35.35 60.81 35.35L60.81 35.35Q59.13 35.35 58.29 34.93Q57.45 34.51 56.93 33.63L56.93 33.63L56.93 42.70L61.44 42.70L61.44 43.33L48.49 43.33L48.49 42.70L50.42 42.70L50.42 18.97L48.56 18.97L48.56 18.34ZM78.28 35.35Q73.76 35.35 71.50 33.02Q69.25 30.70 69.25 26.55Q69.25 22.40 71.78 20.20Q74.32 17.99 78.24 17.99L78.24 17.99Q86.19 17.99 85.87 25.97L85.87 25.97L76.00 25.97L76.00 27.34Q76.00 30.77 76.88 32.52Q77.75 34.27 79.92 34.27L79.92 34.27Q83.98 34.27 85.24 29.93L85.24 29.93L85.87 30.03Q85.21 32.55 83.47 33.95Q81.74 35.35 78.28 35.35L78.28 35.35ZM76.04 23.55L76.04 25.27L79.64 25.27L79.64 23.55Q79.64 20.72 79.31 19.69Q78.98 18.65 77.98 18.65Q76.98 18.65 76.51 19.76Q76.04 20.86 76.04 23.55L76.04 23.55ZM87.20 18.97L87.20 18.34L95.64 18.34L95.64 21.56Q96.20 19.95 97.35 18.97Q98.51 17.99 100.85 17.99L100.85 17.99Q106.28 17.99 106.28 23.84L106.28 23.84L106.28 34.37L108.24 34.37L108.24 35L98.33 35L98.33 34.37L99.77 34.37L99.77 22.99Q99.77 20.89 99.49 20.28Q99.21 19.67 98.47 19.67L98.47 19.67Q97.35 19.67 96.49 21.14Q95.64 22.61 95.64 24.71L95.64 24.71L95.64 34.37L97.14 34.37L97.14 35L87.20 35L87.20 34.37L89.13 34.37L89.13 18.97L87.20 18.97ZM109.92 35.35L109.50 35.35L109.50 29.09L109.92 29.09Q110.83 32.13 112.37 33.35Q113.91 34.58 116.22 34.58L116.22 34.58Q119.79 34.58 119.79 32.30L119.79 32.30Q119.79 31.32 118.91 30.84L118.91 30.84Q117.55 30.06 115.41 29.64L115.41 29.64Q113.03 29.02 111.42 27.96L111.42 27.96Q109.50 26.70 109.50 23.98Q109.50 21.24 111.18 19.62Q112.86 17.99 115.66 17.99L115.66 17.99Q117.37 17.99 119.19 18.79L119.19 18.79Q119.86 19.07 120.21 19.07Q120.56 19.07 120.80 18.83Q121.05 18.58 121.40 17.92L121.40 17.92L121.78 17.92L121.78 23.27L121.36 23.27Q119.58 18.72 115.83 18.72L115.83 18.72Q114.19 18.72 113.38 19.30Q112.58 19.88 112.58 20.75L112.58 20.75Q112.58 21.28 112.82 21.58Q113.07 21.88 113.21 22.02Q113.35 22.16 113.66 22.31Q113.98 22.47 114.19 22.56Q114.40 22.64 114.83 22.78Q115.27 22.92 115.48 22.96L115.48 22.96Q117.86 23.55 118.91 23.99Q119.96 24.43 120.91 25.06L120.91 25.06Q122.83 26.39 122.83 29.35Q122.83 32.30 121.08 33.83Q119.33 35.35 116.29 35.35L116.29 35.35Q114.12 35.35 112.09 34.34L112.09 34.34Q111.67 34.05 111.42 34.05L111.42 34.05Q110.65 34.05 109.92 35.35L109.92 35.35ZM133.09 35.35Q128.57 35.35 126.31 33.02Q124.06 30.70 124.06 26.55Q124.06 22.40 126.59 20.20Q129.13 17.99 133.05 17.99L133.05 17.99Q141.00 17.99 140.68 25.97L140.68 25.97L130.81 25.97L130.81 27.34Q130.81 30.77 131.69 32.52Q132.56 34.27 134.73 34.27L134.73 34.27Q138.79 34.27 140.05 29.93L140.05 29.93L140.68 30.03Q140.02 32.55 138.28 33.95Q136.55 35.35 133.09 35.35L133.09 35.35ZM130.85 23.55L130.85 25.27L134.45 25.27L134.45 23.55Q134.45 20.72 134.12 19.69Q133.79 18.65 132.79 18.65Q131.79 18.65 131.32 19.76Q130.85 20.86 130.85 23.55L130.85 23.55ZM152.16 25.27L143.34 25.27L143.34 24.22L152.16 24.22L152.16 25.27ZM156.01 29.99L156.01 29.99L156.01 18.97L154.09 18.97L154.09 18.34L156.01 18.34L156.01 13.82L162.52 12.21L162.52 18.34L167.07 18.34L167.07 18.97L162.52 18.97L162.52 30.77Q162.52 32.41 162.85 33.18Q163.19 33.95 164.24 33.95Q165.29 33.95 166.07 32.90Q166.86 31.85 167.11 30.03L167.11 30.03L167.70 30.10Q167.42 32.52 166.16 33.93Q164.90 35.35 162.00 35.35Q159.09 35.35 157.55 34.20Q156.01 33.04 156.01 29.99ZM179.74 19.32L179.74 19.32Q178.45 19.32 177.47 21Q176.49 22.68 176.49 24.99L176.49 24.99L176.49 34.37L178.97 34.37L178.97 35L168.05 35L168.05 34.37L169.98 34.37L169.98 18.97L168.05 18.97L168.05 18.34L176.49 18.34L176.49 21.70Q176.94 19.91 178.24 18.95Q179.53 17.99 181.18 17.99Q182.82 17.99 183.85 18.92Q184.89 19.84 184.89 21.54Q184.89 23.24 184.12 24.15Q183.35 25.06 181.75 25.06Q180.16 25.06 179.41 24.01Q178.66 22.96 179.22 21.10L179.22 21.10L180.48 21.10Q181.35 19.32 179.74 19.32ZM193.25 26.77L193.25 26.77L194.27 26.77L194.27 24.08Q194.27 20.75 193.90 19.62Q193.53 18.48 192.48 18.48L192.48 18.48Q191.85 18.48 191.34 18.81Q190.84 19.14 190.84 19.72Q190.84 20.30 191.05 20.89L191.05 20.89L191.92 20.89Q192.20 21.63 192.20 22.66Q192.20 23.70 191.33 24.45Q190.45 25.20 189.12 25.20L189.12 25.20Q186.11 25.20 186.11 22.29L186.11 22.29Q186.11 17.99 193.43 17.99L193.43 17.99Q197.59 17.99 199.18 19.41Q200.78 20.82 200.78 24.60L200.78 24.60L200.78 31.71Q200.78 33.53 201.79 33.53L201.79 33.53Q202.98 33.53 203.19 29.93L203.19 29.93L203.72 29.96Q203.58 33.04 202.56 34.20Q201.55 35.35 199.24 35.35L199.24 35.35Q195.04 35.35 194.41 32.76L194.41 32.76Q193.95 34.09 193.04 34.72Q192.13 35.35 190.38 35.35L190.38 35.35Q185.20 35.35 185.20 31.11L185.20 31.11Q185.20 28.63 187.18 27.70Q189.16 26.77 193.25 26.77ZM191.85 31.08Q191.85 32.90 192.04 33.42Q192.24 33.95 192.78 33.95Q193.32 33.95 193.79 33.06Q194.27 32.16 194.27 30.59L194.27 30.59L194.27 27.34L194.02 27.34Q191.85 27.34 191.85 30.52L191.85 30.52L191.85 31.08ZM213.87 18.62L213.87 18.62Q212.33 18.62 211.66 20.30Q211.00 21.98 211.00 25.86L211.00 25.86L211.00 27.68Q211.00 31.15 211.77 32.66Q212.54 34.16 214.60 34.16Q216.67 34.16 217.89 32.76Q219.12 31.36 219.47 29.57L219.47 29.57L220.10 29.64Q219.43 32.66 217.65 33.98L217.65 33.98Q215.83 35.35 212.64 35.35L212.64 35.35Q208.58 35.35 206.41 33.16Q204.24 30.98 204.24 26.76Q204.24 22.54 206.71 20.27Q209.18 17.99 213.59 17.99L213.59 17.99Q216.70 17.99 218.35 19.20Q219.99 20.41 219.99 22.23Q219.99 24.04 219.20 24.88Q218.42 25.73 217.03 25.73Q215.65 25.73 214.81 24.99Q213.97 24.25 213.97 22.82L213.97 22.82Q213.97 22.19 214.15 21.56L214.15 21.56L215.30 21.56Q215.55 20.86 215.55 20.30L215.55 20.30Q215.55 18.62 213.87 18.62ZM241.80 35L232.07 35L232.07 34.37L233.68 34.37L229.72 26.25L229.06 26.42L229.06 34.37L230.67 34.37L230.67 35L220.62 35L220.62 34.37L222.55 34.37L222.55 9.38L220.48 9.38L220.48 8.75L229.06 8.75L229.06 25.73L229.62 25.52L237.49 18.97L234.20 18.97L234.20 18.34L241.10 18.34L241.10 18.97L238.65 18.97L234.48 22.50L240.54 34.37L241.80 34.37L241.80 35ZM250.65 35.35Q246.14 35.35 243.88 33.02Q241.62 30.70 241.62 26.55Q241.62 22.40 244.16 20.20Q246.70 17.99 250.62 17.99L250.62 17.99Q258.56 17.99 258.25 25.97L258.25 25.97L248.38 25.97L248.38 27.34Q248.38 30.77 249.25 32.52Q250.13 34.27 252.30 34.27L252.30 34.27Q256.36 34.27 257.62 29.93L257.62 29.93L258.25 30.03Q257.58 32.55 255.85 33.95Q254.12 35.35 250.65 35.35L250.65 35.35ZM248.41 23.55L248.41 25.27L252.02 25.27L252.02 23.55Q252.02 20.72 251.68 19.69Q251.35 18.65 250.35 18.65Q249.36 18.65 248.88 19.76Q248.41 20.86 248.41 23.55L248.41 23.55ZM271.20 19.32L271.20 19.32Q269.90 19.32 268.92 21Q267.94 22.68 267.94 24.99L267.94 24.99L267.94 34.37L270.43 34.37L270.43 35L259.51 35L259.51 34.37L261.43 34.37L261.43 18.97L259.51 18.97L259.51 18.34L267.94 18.34L267.94 21.70Q268.40 19.91 269.69 18.95Q270.99 17.99 272.63 17.99Q274.28 17.99 275.31 18.92Q276.34 19.84 276.34 21.54Q276.34 23.24 275.57 24.15Q274.80 25.06 273.21 25.06Q271.62 25.06 270.86 24.01Q270.11 22.96 270.67 21.10L270.67 21.10L271.93 21.10Q272.81 19.32 271.20 19.32Z" fill="#111111"></path></g>
        <defs xmlns="http://www.w3.org/2000/svg">
<linearGradient gradientUnits="userSpaceOnUse" y2="7.85774" x2="32.3018" y1="7.85773" x1="5.30176" id="paint0_linear_5558_2243">
<stop stop-color="#C2C6C7"></stop>
<stop stop-color="#B8B7B8" offset="0.307292"></stop>
<stop stop-color="#B8B7B8" offset="0.604167"></stop>
<stop stop-color="#C2C6C7" offset="1"></stop>
</linearGradient>
</defs>
      </svg>